# xmcd CD database file
#
# Track frame offsets:
#	150
#	15092
#	34038
#	45041
#	58706
#	72789
#	83669
#	98864
#	114229
#	129558
#	144699
#	156783
#
# Disc length: 2231 seconds
#
# Revision: 0
# Processed by: cddbd v1.5.1PL0 Copyright (c) Steve Scherf et al.
# Submitted via: CDex 1.51
#
DISCID=8908b50c
DTITLE=Various Artist - The Best Of Country 20th Century Masters Millenium Collection
DYEAR=2004
DGENRE=Country
TTITLE0=George Strait - All My Ex's Live In Texas
TTITLE1=Patti Loveless - Don't Toss It Away
TTITLE2=Toby Keith - You Ain't Much Fun
TTITLE3=Tracy Byrd - Watermelon Crawl
TTITLE4=Don Williams - Tulsa Time
TTITLE5=Hank Williams - Why Don't You Love Me
TTITLE6=Conway Twitty - Play Guitar Play
TTITLE7=Waylon Jennings - Will The Wolf Survive
TTITLE8=Johnny Cash - The Night Hank Williams Came To Town
TTITLE9=Sammy Kershaw - Third Rate Romance
TTITLE10=Loretta Lynn - Blue Eyed Kentucky Girl
TTITLE11=Patsy Cline - You're Cheating Heart
EXTD=YEAR: 2004
EXTT0=
EXTT1=
EXTT2=
EXTT3=
EXTT4=
EXTT5=
EXTT6=
EXTT7=
EXTT8=
EXTT9=
EXTT10=
EXTT11=
PLAYORDER=
